# xmcd
#
# Track frame offsets: 
#        150
#        15500
#        29197
#        45517
#        61493
#        81046
#        94349
#        118278
#        134129
#        153832
#        166621
#        182275
#        195566
#
# Disc length: 2821 seconds
#
# Revision: 0
# Processed by: cddbd v1.5.2PL0 Copyright (c) Steve Scherf et al.
# Submitted via: ExactAudioCopyFreeDBPlugin 1.0
#
DISCID=a70b030d
DTITLE=3Plusss - Gottkomplex
DYEAR=2016
DGENRE=No, thanks.
TTITLE0=Nein
TTITLE1=Schwarz
TTITLE2=Ich und meine Freunde
TTITLE3=Auseinander
TTITLE4=An und für dich
TTITLE5=Gespenster
TTITLE6=Grau
TTITLE7=In letzter Zeit
TTITLE8=So weit
TTITLE9=Bleiben
TTITLE10=Sonntag
TTITLE11=Nudeln
TTITLE12=Weiß
EXTD=
EXTT0=
EXTT1=
EXTT2=
EXTT3=
EXTT4=
EXTT5=
EXTT6=
EXTT7=
EXTT8=
EXTT9=
EXTT10=
EXTT11=
EXTT12=
PLAYORDER=
